<svg width="65" height="43" viewBox="0 0 65 43" fill="none" xmlns="http://www.w3.org/2000/svg">
<path d="M18.0556 36.8541C15.1667 36.8541 12.2778 35.0114 10.8333 34.2217C3.61111 30.5363 1.44444 29.2201 0 28.4303V39.4866C0 40.9402 1.6171 42.119 3.61111 42.119H32.5C34.494 42.119 36.1111 40.9402 36.1111 39.4866V28.4303C34.6667 29.2201 32.5 30.5363 25.2778 34.2217C23.8333 35.0114 20.9444 36.8541 18.0556 36.8541ZM32.5 21.0595H3.61111C1.6171 21.0595 0 22.2383 0 23.6919V25.0082C2.88889 26.5876 2.52778 26.5876 13 32.1157C14.0833 32.6422 16.25 34.2217 18.0556 34.2217C19.8611 34.2217 22.0278 32.6422 23.1111 32.379C33.5833 26.8509 33.2222 26.8509 36.1111 25.2714V23.6919C36.1111 22.2383 34.494 21.0595 32.5 21.0595ZM61.3889 13.1622H25.2778C23.2838 13.1622 21.6667 14.341 21.6667 15.7946V18.4271H32.5C36.2477 18.4271 39.3374 20.5182 39.6895 23.1836L39.7222 23.1655V34.2217H61.3889C63.3829 34.2217 65 33.0429 65 31.5893V15.7946C65 14.341 63.3829 13.1622 61.3889 13.1622ZM57.7778 23.6919H50.5556V18.4271H57.7778V23.6919ZM18.0556 15.7946C18.0556 12.8915 21.2954 10.5298 25.2778 10.5298H50.5556V2.63244C50.5556 1.17884 48.9385 0 46.9444 0H10.8333C8.83932 0 7.22222 1.17884 7.22222 2.63244V18.4271H18.0556V15.7946Z" fill="black"/>
</svg>
