<svg width="58" height="44" viewBox="0 0 58 44" fill="none" xmlns="http://www.w3.org/2000/svg">
<path d="M56.3459 31.0029L43.6582 26.8897C43.1162 26.7149 42.5138 26.6781 41.9418 26.7848C41.3697 26.8914 40.8589 27.1357 40.4863 27.481L34.8674 32.674C26.0492 29.5288 18.9525 24.1606 14.7948 17.49L21.6597 13.2396C22.1171 12.9583 22.4407 12.5719 22.5818 12.139C22.7228 11.706 22.6735 11.2501 22.4414 10.8402L17.0038 1.24263C16.7491 0.800802 16.2985 0.440067 15.7298 0.222623C15.1611 0.00518027 14.5099 -0.0553409 13.8885 0.0514957L2.10707 2.10813C1.50799 2.21277 0.973494 2.46793 0.590812 2.83196C0.20813 3.19599 -0.000138003 3.64739 6.86067e-08 4.11249C6.86067e-08 26.0927 23.5516 43.874 52.5634 43.874C53.1784 43.8743 53.7754 43.7169 54.2569 43.4274C54.7384 43.1379 55.0759 42.7334 55.2142 42.2801L57.933 33.3681C58.0734 32.8957 57.9917 32.4012 57.702 31.9695C57.4123 31.5378 56.9328 31.196 56.3459 31.0029Z" fill="black"/>
</svg>
